<?xml version="1.0" encoding="UTF-8"?>
<svg id="Layer_2" data-name="Layer 2" xmlns="http://www.w3.org/2000/svg" viewBox="0 0 164.26 368.26">
  <defs>
    <style>
      .cls-1 {
        fill: #f15a24;
        opacity: .35;
        stroke-width: 0px;
      }
    </style>
  </defs>
  <g id="pet_copy" data-name="pet copy">
    <path class="cls-1" d="M88.37,366.05c-45.23,7.3-84.68-4.05-88.13-25.37-3.22-19.97,26.32-41.6,67.28-50.26v-79.2c-34.47-.55-61.17-12.35-62.74-29.24-1.67-17.95,25.62-35.47,62.74-41.46V46.65c-28.92-1.26-51.04-10.25-51.33-21.71C15.87,12.04,43.32.9,77.49.05c34.18-.84,62.15,8.92,62.47,21.82.25,9.99-16.15,18.92-39.43,22.83v93.79c32.62,1.32,57.45,12.86,58.96,29.13,1.61,17.34-23.79,34.27-58.96,40.81v78.23c34.12-.5,60.7,10.25,63.49,27.56,3.44,21.32-30.43,44.52-75.65,51.83Z"/>
  </g>
</svg>