<svg width="300" height="153" viewBox="0 0 300 153" fill="none" xmlns="http://www.w3.org/2000/svg">
<g clip-path="url(#clip0_619_3934)">
<path d="M87.6546 68.6024C81.6742 63.6214 74.7753 60.3182 66.8659 58.6895C67.1638 58.1344 67.3358 57.7203 67.5877 57.3615C81.1151 37.9834 98.6419 23.2981 119.962 13.1459C133.382 6.75405 147.505 2.73613 162.277 0.966407C173.826 -0.41993 185.354 -0.309514 196.863 1.28845C206.063 2.56437 215.026 4.8003 223.759 7.99317C232.897 11.3333 241.546 15.6272 249.668 20.9671C262.372 29.3188 273.178 39.655 281.987 52.0523C282.848 53.2607 283.686 54.4845 284.562 55.6838C284.835 56.0579 285.13 56.4843 285.52 56.6775C285.919 56.8769 286.592 57.0179 286.874 56.8125C287.136 56.6223 287.191 55.8985 287.068 55.4875C286.881 54.8495 286.494 54.2637 286.143 53.684C285.449 52.54 285.474 52.2609 286.807 51.9603C288.88 51.491 290.929 51.4573 292.615 53.1258C295.14 55.6224 297.318 58.3705 298.792 61.6217C300.54 65.4771 300.168 69.4152 299.072 73.3289C297.155 80.1716 292.926 85.5912 288.352 90.8605C279.137 101.479 267.901 109.469 255.759 116.311C241.264 124.479 225.909 130.644 210.096 135.735C197.515 139.787 184.73 143.063 171.759 145.572C164.433 146.989 157.061 148.191 149.674 149.234C142.535 150.243 135.366 151.086 128.182 151.697C121.369 152.276 114.528 152.537 107.694 152.798C102.85 152.982 97.9968 153.074 93.1529 152.948C86.1465 152.767 79.1339 152.494 72.1429 152C66.6048 151.611 61.0697 150.982 55.5776 150.169C52.463 149.709 49.2378 149.36 46.4149 147.7C45.7207 147.292 45.0081 146.903 44.3692 146.415C41.9334 144.55 41.6048 142.959 43.1037 140.259C44.5812 137.603 46.6914 135.539 49.2378 133.907C55.1629 130.11 61.5212 127.16 67.9686 124.393C77.5858 120.268 87.4304 116.768 97.4501 113.763C101.099 112.668 104.822 111.827 108.508 110.852C108.996 110.723 109.543 110.597 109.912 110.291C110.243 110.015 110.366 109.487 110.584 109.073C110.117 108.901 109.601 108.503 109.196 108.595C107.418 109.002 105.667 109.539 103.913 110.048C92.5324 113.342 81.2749 117.014 70.3521 121.605C64.3256 124.139 58.5079 127.154 52.5551 129.868C51.0316 130.561 49.6279 131.859 47.5545 131.261C47.6497 130.62 47.748 129.975 47.8432 129.331C48.6879 123.703 47.2412 118.532 44.4798 113.711C40.7908 107.273 35.6151 102.439 28.4766 100.019C23.9705 98.4915 19.4675 98.4209 15.1396 100.773C15.0352 100.832 14.9 100.829 14.6758 100.878C14.7004 100.678 14.6696 100.5 14.7403 100.387C16.144 98.2185 16.5618 95.8262 16.786 93.2743C17.1024 89.6919 18.503 86.3672 20.1464 83.1866C26.8978 70.1084 37.6577 62.5265 52.1251 60.1188C57.3653 59.2477 62.6331 59.5483 67.8703 60.174C69.0989 60.3212 70.2754 60.9531 71.4641 61.3886C81.1459 64.9372 89.2396 70.547 94.8453 79.3772C95.3675 80.1992 95.8405 81.058 96.4057 81.8524C96.5654 82.0763 96.9678 82.1284 97.2566 82.2572C97.3671 81.9597 97.6344 81.6193 97.5637 81.3739C97.361 80.6562 97.1552 79.8741 96.7129 79.2944C94.5873 76.4941 92.3942 73.7429 90.1918 71.004C89.9399 70.6912 89.4608 70.5623 89.1382 70.3752C91.7952 66.9278 98.0122 66.2776 101.796 68.8355C106.683 72.1388 108.852 78.454 107.135 84.1036C106.478 86.269 105.452 88.1645 103.879 89.7778C103.418 90.2501 102.881 90.8513 103.572 91.3604C103.845 91.5629 104.797 91.2531 105.135 90.8912C107.574 88.3056 109.015 85.1955 109.294 81.6653C109.724 76.1966 108.059 71.4917 103.59 68.0749C99.0443 64.5999 92.7843 64.6765 88.014 68.4828C87.9526 68.5319 87.8574 68.538 87.6516 68.6024H87.6546ZM52.9944 102.549C52.9176 102.408 52.8439 102.27 52.7671 102.129C53.1756 101.841 53.6148 101.586 53.9865 101.258C54.7483 100.583 55.5192 99.9085 56.1919 99.1509C56.45 98.8626 56.4561 98.3535 56.579 97.9425C56.1244 97.9915 55.5407 97.8781 55.2397 98.1204C53.8821 99.2061 52.5828 100.365 51.305 101.546C50.3528 102.427 50.4879 103.319 51.6828 103.807C52.936 104.316 54.2353 104.733 55.5469 105.07C55.9769 105.181 56.5022 104.908 56.9844 104.81C56.6773 104.423 56.4469 103.877 56.0445 103.687C55.0708 103.221 54.0172 102.917 52.9944 102.549ZM24.3053 92.3112C24.2316 92.4186 24.1548 92.5229 24.0811 92.6302C23.6879 92.5812 23.2917 92.5382 22.9016 92.4799C22.1061 92.3603 21.3136 92.1456 20.5211 92.1518C20.174 92.1518 19.8269 92.5934 19.4829 92.8357C19.7624 93.0934 20.0081 93.5013 20.3307 93.578C21.6883 93.9031 23.0613 94.2067 24.4466 94.354C24.9965 94.4122 25.835 94.2067 26.093 93.8203C26.351 93.4369 26.2343 92.5566 25.9487 92.1027C25.233 90.9617 24.3698 89.9005 23.4791 88.8883C23.2487 88.6246 22.6897 88.646 22.2842 88.5356C22.3334 88.9773 22.2473 89.5079 22.4624 89.8484C23.006 90.7133 23.6849 91.4954 24.3084 92.3143L24.3053 92.3112Z" fill="#FFA13F"/>
<path d="M40.3514 131.846C35.0436 131.944 29.7881 131.444 24.8857 129.316C20.1339 127.252 15.9289 124.341 13.5146 119.55C11.1525 114.861 11.0235 109.95 13.0815 105.156C14.0736 102.85 16.4203 101.841 18.7548 101.19C23.6417 99.8286 28.1355 101.184 32.2699 103.672C39.7033 108.147 44.5165 114.621 46.0001 123.243C46.3872 125.488 46.0001 127.877 45.8773 130.193C45.8158 131.328 45.1278 131.911 43.9206 131.855C42.7319 131.803 41.5401 131.843 40.3483 131.843L40.3514 131.846ZM26.3571 109.561C26.2987 110.131 26.268 110.468 26.2311 110.806C26.2096 111.017 26.1083 111.251 26.1697 111.431C26.3048 111.833 26.5199 112.211 26.7042 112.597C27.0973 112.361 27.7608 112.186 27.8314 111.876C28.1171 110.622 28.9618 110.3 30.0614 110.076C30.8324 109.919 31.6003 109.591 32.2792 109.192C33.9501 108.211 34.0668 106.723 32.4174 105.73C31.1027 104.935 29.6161 104.3 28.1232 103.954C25.9885 103.457 24.6001 105.181 25.2881 107.266C25.4571 107.782 25.7827 108.242 26.0161 108.735C26.1728 109.067 26.2956 109.41 26.354 109.561H26.3571Z" fill="#FFA13F"/>
<path d="M14.4763 96.9549C14.1077 97.78 13.7667 98.6173 13.3613 99.4239C12.4275 101.28 11.3432 103.068 10.5385 104.975C9.17157 108.227 9.45416 111.616 10.1361 114.971C10.7135 117.827 11.8162 120.477 13.564 122.838C13.6807 122.998 13.7391 123.203 13.8835 123.507C12.492 123.507 11.1712 123.716 9.94563 123.461C7.68491 122.992 5.35661 122.519 3.2894 121.55C0.469645 120.228 -0.513277 117.376 0.254631 114.324C1.24677 110.37 3.55049 107.165 6.22895 104.252C8.5511 101.727 11.1313 99.4454 13.6039 97.0592C13.7452 96.9212 13.9326 96.8322 14.0985 96.7188C14.2244 96.7954 14.3503 96.8721 14.4794 96.9488L14.4763 96.9549Z" fill="#FFA13F"/>
<path d="M29.8033 68.3599C28.2275 65.6547 27.9849 63.1366 28.848 60.5817C30.9183 54.4505 37.4701 51.3466 43.6625 53.3709C46.4484 54.2818 48.5648 55.9289 50.5184 58.6433C42.6765 60.14 35.7469 63.0477 29.8033 68.3599Z" fill="#FFA13F"/>
</g>
<defs>
<clipPath id="clip0_619_3934">
<rect width="300" height="153" fill="white"/>
</clipPath>
</defs>
</svg>
